<?xml version="1.0" encoding="utf-8"?>
<!-- Generator: Adobe Illustrator 16.0.0, SVG Export Plug-In . SVG Version: 6.00 Build 0)  -->
<!DOCTYPE svg PUBLIC "-//W3C//DTD SVG 1.1//EN" "http://www.w3.org/Graphics/SVG/1.1/DTD/svg11.dtd">
<svg version="1.1" id="Слой_1" xmlns="http://www.w3.org/2000/svg" xmlns:xlink="http://www.w3.org/1999/xlink" x="0px" y="0px"
	 width="1090.001px" height="438px" viewBox="25.833 57 1090.001 438" enable-background="new 25.833 57 1090.001 438"
	 xml:space="preserve">
<g id="figure_1">
	<g id="axes_1">
		<g id="patch_2">
			<path fill="#FFFFFF" d="M62.216,479.09H1095.8V70.413H62.216V479.09z"/>
		</g>
		<g id="line2d_1">
			<g>
				<defs>
					<rect id="SVGID_1_" x="62.216" y="70.413" width="1033.589" height="408.677"/>
				</defs>
				<clipPath id="SVGID_2_">
					<use xlink:href="#SVGID_1_"  overflow="visible"/>
				</clipPath>
				<path clip-path="url(#SVGID_2_)" fill="none" stroke="#0000FF" stroke-linecap="square" stroke-linejoin="round" d="
					M62.216,477.591l1.034,1.362l9.302-1.227l1.034-0.271l1.034,1.498l1.034-2.043l7.235-1.907l1.034,2.043l1.034-2.588l1.034,4.359
					l1.033-4.904l6.202-1.635l1.034,4.496l2.067-5.313l1.033,7.22l1.034-7.765l5.168-1.362l1.033,6.947l3.101-8.037l1.034,10.081
					l1.033-10.626l4.134-1.09l1.034,9.4l4.134-10.763l1.034,12.941l1.034-13.486l3.1-0.816l1.034,11.851l5.168-13.486l1.033,15.803
					l1.034-16.348l2.067-0.545l1.034,14.304l6.201-16.211l1.034,18.663l1.034-19.208l1.033-0.271l1.034,16.755l7.235-18.936
					L154.205,478l1.034-22.069l1.034,21.934l9.302-24.657l1.034,24.52l1.033-25.338l7.235-2.859l1.034,2.997l1.033,24.929
					l1.034-0.136l1.034-29.426l7.235-2.86l1.033,32.148l1.034-2.588l1.033,4.359l1.034-35.555l6.202-2.452l1.033,35.964l1.034-5.04
					l1.033-32.15l7.235-2.859l1.034,39.776l1.034-7.492l1.033-33.511l7.235-2.86l1.034,43.592l1.034-9.944l1.033-34.874l7.235-2.861
					l1.034,47.407l1.033-12.396l1.034-36.236l7.235-2.861l1.034,51.222l1.033-14.849l1.034-37.599l7.235-2.859l1.034,55.034
					l1.033-17.301l1.034-38.96l7.235-2.861l2.067,58.85l1.034-60.075l7.235-2.861l2.067,62.664l1.034-63.89l6.201-2.452
					l1.034,43.456l1.033-4.087l1.034,26.7l1.033,2.315l1.034-41.276l6.202-24.521l2.067,63.209l1.033-0.136l1.034-71.791
					l6.201-2.452l1.033,43.592l1.034,30.514l1.033-2.588l1.034,7.221l1.033-80.782l5.168-2.043l1.033,47.27l1.034,30.651l1.033-5.04
					l1.034-74.516l6.201-2.453l1.034,50.95l1.032,30.786l1.034-7.492l1.034-75.879l6.201-2.451l1.034,54.627l1.032,30.923
					l1.034-9.944l1.033-77.24l6.202-2.451l1.034,58.304l1.032,31.06l1.034-12.396l1.033-78.602l6.202-2.453l1.033,61.983
					l1.033,31.195l1.034-14.849l1.033-79.965l6.202-2.451l1.033,65.66l1.034-40.867l1.033,72.199l1.033-98.628l6.202-2.452
					l1.033,69.339l1.034-40.868l1.032,72.337l1.034-102.441l5.168-2.044l1.034,83.915l2.067-8.173l1.032,28.471l1.034,4.769
					l1.034-45.5l5.167-20.434l1.034,29.152l1.034-37.326l1.033,69.066l1.033,2.315l1.033-83.642l5.168-20.435l1.034,69.611
					l1.034-40.868l1.033,72.745l1.033-0.136l1.033-114.157l5.168-2.044l1.034,84.051l1.033-40.866l1.034,72.88l1.034-2.589
					l1.032,10.081l1.034-126.009l4.134-1.635l1.034,87.729l1.033-40.868l1.034,73.018l1.033-5.04l1.033-116.882l5.168-2.043
					l1.034,91.407l1.033-40.868l1.034,73.153l1.033-7.492l1.033-118.244l5.168-2.043l1.033,95.085l1.034-40.867l1.034,73.289
					l1.033-9.944l1.034-119.606l5.168-2.043l1.032,98.764l1.034-40.868l1.034,73.426l1.033-12.396l1.034-120.968l5.168-2.045
					l1.032,102.442l2.067-81.735l1.034,114.43l1.034-137.18l5.168-2.043l1.032,106.119l2.067-81.734l1.034,114.565l1.034-140.993
					l4.134-1.635l1.033,124.374l3.101-12.261l1.034,30.242l1.033,7.22l1.034-49.722l4.134-16.348l1.034,25.475l1.033-33.648
					l1.033-4.086l1.034,70.837l1.033,4.769l1.034-87.866l4.134-16.347l1.034,65.933l2.066-78.192l1.034,111.432l1.033,2.315
					l1.034-126.008l4.134-16.349l1.034,106.394l2.066-81.735l1.033,115.11l1.034-0.136l1.034-156.523l4.134-1.635l1.034,124.51
					l2.066-81.734l1.033,115.246l1.034-2.589l1.034,12.942l1.033-171.236l3.101-1.226l1.033,128.188l2.067-81.734l1.033,115.383
					l1.034-5.04l1.033-159.248l4.135-1.635l1.033,131.867l2.067-81.736l1.033,115.521l1.034-7.493l1.033-160.61l4.135-1.635
					l1.033,135.545l2.067-81.735l1.033,115.655l1.034-9.944l1.033-161.973l4.135-1.634l1.033,139.222l3.101-122.604l1.034,156.66
					l1.033-175.73l4.134-1.635l1.034,142.901l3.101-122.603l1.033,156.795l1.034-179.545l3.101-1.226l1.033,164.833l4.136-16.347
					l1.032,32.013l1.034,9.673l1.033-53.946l3.101-12.26l1.034,21.796l1.033-29.97l2.068-8.174l1.032,72.608l1.034,7.22
					l1.033-92.088l3.101-12.262l1.034,62.257l1.033-40.868l1.034-33.648l1.033-4.086l1.033,113.203l1.034,4.769l1.033-130.232
					l3.101-12.26l1.034,102.714l3.101-119.061l1.033,153.798l1.034,2.315l1.033-168.375l3.102-12.26l1.032,143.173l3.102-122.603
					l1.034,157.477l1.032-0.136l1.034-198.89l3.102-1.226l1.032,164.97l3.102-122.603l1.034,157.613l1.032-2.589l1.034,15.802
					l1.033-216.462l2.068-0.817l1.032,168.647l3.102-122.604l1.034,157.749l1.032-5.04l1.034-201.614l3.102-1.226l1.033,172.325
					l3.101-122.604l1.034,157.887l1.033-7.493l1.033-202.976l3.101-1.226l1.034,176.004l4.134-163.471l1.034,198.889l1.033-214.283
					l3.101-1.226l1.034,179.682l4.134-163.471l1.034,199.026l1.032-218.098l2.068-0.818l1.033,205.292l5.168-20.435l1.034,33.784
					l1.033,12.124l1.033-58.168l2.067-8.174l1.034,18.118l1.033-26.291l3.101-12.26l1.034,74.378l1.033,9.673l1.033-96.313
					l2.067-8.173l1.034,58.577l1.033-40.868l1.034-29.97l2.066-8.174l1.034,114.975l1.033,7.22l1.034-134.454l2.066-8.174
					l1.033,99.036l2.068-81.735l1.032-33.647l1.034-4.087l1.033,155.569l1.034,4.769l1.034-172.598l2.066-8.174l1.033,139.495
					l4.135-159.928l1.033,196.164l1.034,2.315l1.033-210.741l2.067-8.173l1.033,179.954l4.135-163.471l1.033,199.843l1.034-0.136
					l1.033-241.256l2.067-0.817l1.033,205.429l4.135-163.472l1.033,199.98l1.034-2.589l1.033,18.663l1.034-261.689l1.032-0.409
					l1.034,209.106l4.134-163.47l1.034,200.115l1.034-5.04l1.033-243.98l2.066-0.818l1.034,212.785l5.168-204.339l1.033,241.12
					l1.034-252.835l2.067-0.817l1.033,216.462l5.168-204.338l1.033,241.255l1.034-256.649l1.034-0.409l1.033,245.751l6.201-24.521
					l1.033,35.556l1.034,14.575l1.033-62.391l1.034-4.087l1.033,14.439l1.033-22.613l4.135-16.347l1.033,76.149l1.034,12.124
					l1.033-100.534l1.034-4.087l1.032,54.899l1.034-40.868l1.034-26.291l3.101-12.26l1.033,116.745l1.034,9.672l1.033-138.679
					l1.034-4.086l1.033,95.357l2.067-81.735l1.033-29.97l2.067-8.173l1.033,157.34l1.033,7.22l1.034-176.82l1.034-4.087
					l1.033,135.817l3.101-122.603l1.034-33.648l1.033-4.087l1.033,197.936l1.033,4.769l1.034-214.964l1.034-4.087l1.033,176.276
					l5.168-200.797l1.033,238.532l1.033,2.314l1.034-253.106l1.033-4.087l1.034,216.734l5.168-204.337l1.034,242.208l1.032-0.136
					l1.034-283.622l1.033-0.409l1.034,245.888l5.168-204.339l1.033,242.346l1.033-2.589l1.034,21.523l1.033-306.916l1.034,249.565
					l6.201-245.206l1.033,283.349l1.034-291.386l1.033-0.409l1.034,253.243l6.201-245.206l1.034,283.486l1.032-295.201l1.034,286.21
					l7.235-28.608l1.034,37.326l1.032,17.028l1.034-66.614l1.033,10.762l1.034-18.935l5.168-20.435l1.034,77.922l1.032,14.575
					l1.034-104.757l1.033,51.221l1.034-40.867l1.034-22.614l4.134-16.347l1.033,118.516l1.033,12.124l1.034-142.899l1.033,91.68
					l2.067-81.736l1.034-26.291l3.101-12.261l1.033,159.112l1.034,9.672l1.033-181.044l1.033,132.139l3.102-122.603l1.032-29.97
					l2.068-8.173l1.033,199.706l1.034,7.22l1.032-219.187l1.034,172.598l4.134-163.47l1.034-33.648l1.034-4.087l1.033,240.302
					l1.034,4.769l1.032-257.33l1.034,213.057l6.201-241.665l1.034,280.898l1.034,2.315l1.033-295.474l1.033,253.517l6.201-245.207
					l1.034,284.575l1.034-0.136l1.033-325.988L983.144,478l1.033-102.169l6.202-245.207l1.033,325.58l1.034-329.939l1.034,290.025
					l7.229-286.074l1.04,325.715l1.03,21.934l1.04-28.608l7.229-28.607l1.03,35.011l1.04,19.479l1.03-59.666l1.029-11.171
					l6.21-24.521l1.03,75.604l1.03,17.028l1.04-57.35l1.029-40.869l1.03-14.848l5.17-20.435l1.04,116.201l1.03,14.576l1.03-55.036
					l2.069-81.735l1.03-18.526l4.141-16.347l1.029,156.795l1.04,12.124l1.03-52.719l3.1-122.603l1.03-22.205l3.1-12.26l1.04,197.391
					l1.03,9.672l1.03-50.404l4.14-163.47l1.03-25.883l2.07-8.174l1.029,237.986l1.04,7.22l1.03-48.086l5.17-204.34l1.03-29.561
					l1.04-4.086l1.029,278.582l1.03,4.768l2.07-86.64l5.17-204.338l1.03-33.239l1.039,319.177l1.03,2.315l1.03-2.588l8.27-326.941
					l0,0"/>
			</g>
		</g>
		<g id="patch_3">
			<path fill="none" stroke="#000000" stroke-linecap="square" d="M62.216,70.413H1095.8"/>
		</g>
		<g id="patch_4">
			<path fill="none" stroke="#000000" stroke-linecap="square" d="M1095.8,479.09V70.413"/>
		</g>
		<g id="patch_5">
			<path fill="none" stroke="#000000" stroke-linecap="square" d="M62.216,479.09H1095.8"/>
		</g>
		<g id="patch_6">
			<path fill="none" stroke="#000000" stroke-linecap="square" d="M62.216,479.09V70.413"/>
		</g>
		<g id="matplotlib.axis_1">
			<g id="xtick_1">
				<g id="line2d_2">
					<g>
						<g>
							<path id="mc7db9fdffb" stroke="#000000" stroke-width="0.5" stroke-linejoin="round" d="M62.216,479.09v-4"/>
						</g>
					</g>
				</g>
				<g id="line2d_3">
					<g>
						<g>
							<path id="m5a7d422ac3" stroke="#000000" stroke-width="0.5" stroke-linejoin="round" d="M62.216,70.413v4"/>
						</g>
					</g>
				</g>
				<g id="text_1">
					<g transform="translate(59.1925903746 492.207672038)scale(0.12 -0.12)">
						<g>
							<path id="BitstreamVeraSans-Roman-30" d="M31.781,66.403c-5.074,0-8.891-2.498-11.454-7.495
								c-2.551-4.989-3.829-12.5-3.829-22.534c0-9.985,1.278-17.48,3.829-22.485c2.563-4.997,6.38-7.495,11.454-7.495
								c5.115,0,8.948,2.498,11.499,7.495c2.563,5.005,3.845,12.5,3.845,22.485c0,10.034-1.282,17.546-3.845,22.534
								C40.729,63.905,36.896,66.403,31.781,66.403 M31.781,74.216c8.179,0,14.42-3.231,18.734-9.701
								c4.313-6.462,6.47-15.837,6.47-28.141c0-12.272-2.156-21.639-6.47-28.109C46.202,1.804,39.96-1.419,31.781-1.419
								c-8.167,0-14.408,3.223-18.718,9.684c-4.313,6.47-6.47,15.837-6.47,28.109c0,12.305,2.156,21.68,6.47,28.141
								C17.373,70.985,23.615,74.216,31.781,74.216"/>
						</g>
					</g>
				</g>
			</g>
			<g id="xtick_2">
				<g id="line2d_4">
					<g>
						<g>
							<path id="mc7db9fdffb_1_" stroke="#000000" stroke-width="0.5" stroke-linejoin="round" d="M268.934,479.09v-4"/>
						</g>
					</g>
				</g>
				<g id="line2d_5">
					<g>
						<g>
							<path id="m5a7d422ac3_1_" stroke="#000000" stroke-width="0.5" stroke-linejoin="round" d="M268.934,70.413v4"/>
						</g>
					</g>
				</g>
				<g id="text_2">
					<g transform="translate(258.319422909 492.207672038)scale(0.12 -0.12)">
						<g>
							<path id="BitstreamVeraSans-Roman-32" d="M19.189,8.298h34.42v-8.301H7.328v8.301c3.739,3.874,8.838,9.074,15.295,15.592
								c6.47,6.535,10.535,10.742,12.191,12.638c3.154,3.54,5.359,6.543,6.608,9.001c1.261,2.458,1.892,4.875,1.892,7.251
								c0,3.874-1.359,7.031-4.081,9.473c-2.718,2.441-6.258,3.67-10.624,3.67c-3.092,0-6.36-0.537-9.794-1.611
								c-3.43-1.074-7.096-2.702-11.003-4.891v9.969c3.971,1.595,7.678,2.799,11.125,3.613c3.459,0.806,6.62,1.213,9.485,1.213
								c7.552,0,13.574-1.888,18.062-5.672c4.492-3.768,6.734-8.813,6.734-15.12c0-3.003-0.562-5.843-1.689-8.537
								c-1.111-2.669-3.154-5.835-6.124-9.481c-0.81-0.944-3.402-3.678-7.764-8.187C33.288,22.71,27.135,16.403,19.189,8.298"/>
						</g>
						<g>
							<path id="BitstreamVeraSans-Roman-30_1_" d="M95.405,66.403c-5.074,0-8.891-2.498-11.454-7.495
								c-2.551-4.989-3.829-12.5-3.829-22.534c0-9.985,1.278-17.48,3.829-22.485c2.563-4.997,6.38-7.495,11.454-7.495
								c5.115,0,8.948,2.498,11.499,7.495c2.563,5.005,3.845,12.5,3.845,22.485c0,10.034-1.282,17.546-3.845,22.534
								C104.353,63.905,100.52,66.403,95.405,66.403 M95.405,74.216c8.175,0,14.421-3.231,18.734-9.701
								c4.313-6.462,6.47-15.837,6.47-28.141c0-12.272-2.157-21.639-6.47-28.109c-4.313-6.462-10.559-9.684-18.734-9.684
								c-8.167,0-14.408,3.223-18.722,9.684c-4.309,6.47-6.466,15.837-6.466,28.109c0,12.305,2.157,21.68,6.466,28.141
								C80.997,70.985,87.239,74.216,95.405,74.216"/>
						</g>
						<g>
							<path id="BitstreamVeraSans-Roman-30_2_" d="M159.028,66.403c-5.074,0-8.891-2.498-11.454-7.495
								c-2.551-4.989-3.829-12.5-3.829-22.534c0-9.985,1.278-17.48,3.829-22.485c2.563-4.997,6.38-7.495,11.454-7.495
								c5.115,0,8.948,2.498,11.499,7.495c2.563,5.005,3.845,12.5,3.845,22.485c0,10.034-1.282,17.546-3.845,22.534
								C167.976,63.905,164.143,66.403,159.028,66.403 M159.028,74.216c8.175,0,14.421-3.231,18.734-9.701
								c4.313-6.462,6.47-15.837,6.47-28.141c0-12.272-2.157-21.639-6.47-28.109c-4.313-6.462-10.559-9.684-18.734-9.684
								c-8.167,0-14.408,3.223-18.722,9.684c-4.309,6.47-6.466,15.837-6.466,28.109c0,12.305,2.157,21.68,6.466,28.141
								C144.62,70.985,150.862,74.216,159.028,74.216"/>
						</g>
					</g>
				</g>
			</g>
			<g id="xtick_3">
				<g id="line2d_6">
					<g>
						<g>
							<path id="mc7db9fdffb_2_" stroke="#000000" stroke-width="0.5" stroke-linejoin="round" d="M475.651,479.09v-4"/>
						</g>
					</g>
				</g>
				<g id="line2d_7">
					<g>
						<g>
							<path id="m5a7d422ac3_2_" stroke="#000000" stroke-width="0.5" stroke-linejoin="round" d="M475.651,70.413v4"/>
						</g>
					</g>
				</g>
				<g id="text_3">
					<g transform="translate(464.890942944 492.207672038)scale(0.12 -0.12)">
						<g>
							<path id="BitstreamVeraSans-Roman-34" d="M37.799,64.312L12.888,25.388h24.911V64.312z M35.203,72.906h12.411V25.388h10.4
								v-8.203h-10.4V-0.003h-9.814v17.188H4.889v9.521L35.203,72.906z"/>
						</g>
						<g>
							<path id="BitstreamVeraSans-Roman-30_3_" d="M95.408,66.403c-5.078,0-8.895-2.498-11.458-7.495
								c-2.547-4.989-3.825-12.5-3.825-22.534c0-9.985,1.278-17.48,3.825-22.485c2.563-4.997,6.38-7.495,11.458-7.495
								c5.111,0,8.944,2.498,11.499,7.495c2.563,5.005,3.841,12.5,3.841,22.485c0,10.034-1.278,17.546-3.841,22.534
								C104.351,63.905,100.518,66.403,95.408,66.403 M95.408,74.216c8.171,0,14.421-3.231,18.734-9.701
								c4.313-6.462,6.47-15.837,6.47-28.141c0-12.272-2.157-21.639-6.47-28.109c-4.313-6.462-10.563-9.684-18.734-9.684
								c-8.171,0-14.412,3.223-18.726,9.684c-4.305,6.47-6.462,15.837-6.462,28.109c0,12.305,2.157,21.68,6.462,28.141
								C80.995,70.985,87.237,74.216,95.408,74.216"/>
						</g>
						<g>
							<path id="BitstreamVeraSans-Roman-30_4_" d="M159.031,66.403c-5.078,0-8.895-2.498-11.458-7.495
								c-2.547-4.989-3.825-12.5-3.825-22.534c0-9.985,1.278-17.48,3.825-22.485c2.563-4.997,6.38-7.495,11.458-7.495
								c5.111,0,8.944,2.498,11.499,7.495c2.563,5.005,3.841,12.5,3.841,22.485c0,10.034-1.278,17.546-3.841,22.534
								C167.974,63.905,164.141,66.403,159.031,66.403 M159.031,74.216c8.171,0,14.421-3.231,18.734-9.701
								c4.313-6.462,6.47-15.837,6.47-28.141c0-12.272-2.157-21.639-6.47-28.109c-4.313-6.462-10.563-9.684-18.734-9.684
								c-8.171,0-14.412,3.223-18.726,9.684c-4.305,6.47-6.462,15.837-6.462,28.109c0,12.305,2.157,21.68,6.462,28.141
								C144.618,70.985,150.86,74.216,159.031,74.216"/>
						</g>
					</g>
				</g>
			</g>
			<g id="xtick_4">
				<g id="line2d_8">
					<g>
						<g>
							<path id="mc7db9fdffb_3_" stroke="#000000" stroke-width="0.5" stroke-linejoin="round" d="M682.369,479.09v-4"/>
						</g>
					</g>
				</g>
				<g id="line2d_9">
					<g>
						<g>
							<path id="m5a7d422ac3_3_" stroke="#000000" stroke-width="0.5" stroke-linejoin="round" d="M682.369,70.413v4"/>
						</g>
					</g>
				</g>
				<g id="text_4">
					<g transform="translate(671.734337979 492.207672038)scale(0.12 -0.12)">
						<g>
							<path id="BitstreamVeraSans-Roman-36" d="M33.017,40.378c-4.427,0-7.935-1.522-10.531-4.549
								c-2.588-3.019-3.874-7.17-3.874-12.435c0-5.241,1.286-9.391,3.874-12.443c2.596-3.044,6.104-4.557,10.531-4.557
								s7.935,1.514,10.514,4.557c2.58,3.052,3.874,7.202,3.874,12.443c0,5.265-1.294,9.416-3.874,12.435
								C40.951,38.856,37.444,40.378,33.017,40.378 M52.597,71.294V62.31c-2.482,1.172-4.98,2.059-7.503,2.677
								c-2.523,0.618-5.021,0.936-7.503,0.936c-6.51,0-11.483-2.197-14.917-6.592c-3.426-4.403-5.387-11.043-5.875-19.922
								c1.912,2.832,4.321,5.005,7.218,6.51c2.905,1.514,6.095,2.271,9.579,2.271c7.324,0,13.11-2.23,17.358-6.673
								s6.372-10.482,6.372-18.123c0-7.495-2.214-13.501-6.641-18.034c-4.427-4.525-10.311-6.779-17.668-6.779
								c-8.439,0-14.885,3.223-19.344,9.684c-4.46,6.47-6.689,15.837-6.689,28.109c0,11.523,2.734,20.711,8.203,27.563
								C20.655,70.79,27.996,74.216,37.2,74.216c2.482,0,4.98-0.244,7.503-0.732C47.226,72.995,49.854,72.263,52.597,71.294"/>
						</g>
						<g>
							<path id="BitstreamVeraSans-Roman-30_5_" d="M95.403,66.403c-5.07,0-8.887-2.498-11.45-7.495
								c-2.555-4.989-3.833-12.5-3.833-22.534c0-9.985,1.278-17.48,3.833-22.485c2.563-4.997,6.38-7.495,11.45-7.495
								c5.119,0,8.952,2.498,11.499,7.495c2.563,5.005,3.849,12.5,3.849,22.485c0,10.034-1.286,17.546-3.849,22.534
								C104.355,63.905,100.522,66.403,95.403,66.403 M95.403,74.216c8.179,0,14.421-3.231,18.734-9.701
								c4.313-6.462,6.47-15.837,6.47-28.141c0-12.272-2.157-21.639-6.47-28.109c-4.313-6.462-10.555-9.684-18.734-9.684
								c-8.162,0-14.404,3.223-18.717,9.684c-4.313,6.47-6.47,15.837-6.47,28.109c0,12.305,2.156,21.68,6.47,28.141
								C80.999,70.985,87.24,74.216,95.403,74.216"/>
						</g>
						<g>
							<path id="BitstreamVeraSans-Roman-30_6_" d="M159.026,66.403c-5.07,0-8.887-2.498-11.45-7.495
								c-2.555-4.989-3.833-12.5-3.833-22.534c0-9.985,1.278-17.48,3.833-22.485c2.563-4.997,6.38-7.495,11.45-7.495
								c5.119,0,8.952,2.498,11.499,7.495c2.563,5.005,3.849,12.5,3.849,22.485c0,10.034-1.286,17.546-3.849,22.534
								C167.978,63.905,164.145,66.403,159.026,66.403 M159.026,74.216c8.179,0,14.421-3.231,18.734-9.701
								c4.313-6.462,6.47-15.837,6.47-28.141c0-12.272-2.157-21.639-6.47-28.109c-4.313-6.462-10.555-9.684-18.734-9.684
								c-8.162,0-14.404,3.223-18.717,9.684c-4.313,6.47-6.47,15.837-6.47,28.109c0,12.305,2.156,21.68,6.47,28.141
								C144.622,70.985,150.864,74.216,159.026,74.216"/>
						</g>
					</g>
				</g>
			</g>
			<g id="xtick_5">
				<g id="line2d_10">
					<g>
						<g>
							<path id="mc7db9fdffb_4_" stroke="#000000" stroke-width="0.5" stroke-linejoin="round" d="M889.087,479.09v-4"/>
						</g>
					</g>
				</g>
				<g id="line2d_11">
					<g>
						<g>
							<path id="m5a7d422ac3_4_" stroke="#000000" stroke-width="0.5" stroke-linejoin="round" d="M889.087,70.413v4"/>
						</g>
					</g>
				</g>
				<g id="text_5">
					<g transform="translate(878.439920514 492.207672038)scale(0.12 -0.12)">
						<g>
							<path id="BitstreamVeraSans-Roman-38" d="M31.783,34.624c-4.688,0-8.374-1.253-11.067-3.768
								c-2.678-2.507-4.012-5.957-4.012-10.343c0-4.395,1.334-7.845,4.012-10.36c2.693-2.507,6.38-3.76,11.067-3.76
								s8.382,1.253,11.076,3.776c2.71,2.531,4.061,5.981,4.061,10.343c0,4.386-1.343,7.837-4.028,10.343
								C40.214,33.371,36.512,34.624,31.783,34.624 M21.92,38.815c-4.224,1.042-7.527,3.011-9.888,5.9
								C9.681,47.621,8.5,51.161,8.5,55.327c0,5.827,2.075,10.425,6.217,13.81c4.159,3.385,9.847,5.078,17.065,5.078
								c7.259,0,12.956-1.693,17.09-5.078c4.134-3.385,6.201-7.983,6.201-13.81c0-4.167-1.18-7.707-3.54-10.612
								c-2.36-2.889-5.631-4.858-9.831-5.9c4.752-1.107,8.447-3.271,11.092-6.502c2.661-3.223,3.987-7.153,3.987-11.8
								c0-7.072-2.156-12.5-6.47-16.276C46,0.461,39.824-1.419,31.783-1.419c-8.032,0-14.209,1.88-18.53,5.656
								c-4.313,3.776-6.47,9.204-6.47,16.276c0,4.647,1.335,8.577,3.996,11.8C13.457,35.544,17.176,37.709,21.92,38.815
								 M18.315,54.392c0-3.776,1.172-6.714,3.532-8.83c2.36-2.116,5.672-3.174,9.937-3.174c4.24,0,7.552,1.058,9.937,3.174
								c2.393,2.116,3.589,5.054,3.589,8.83c0,3.776-1.196,6.73-3.589,8.846c-2.384,2.108-5.696,3.166-9.937,3.166
								c-4.264,0-7.576-1.058-9.937-3.166C19.487,61.122,18.315,58.168,18.315,54.392"/>
						</g>
						<g>
							<path id="BitstreamVeraSans-Roman-30_7_" d="M95.406,66.403c-5.078,0-8.895-2.498-11.458-7.495
								c-2.547-4.989-3.825-12.5-3.825-22.534c0-9.985,1.278-17.48,3.825-22.485c2.563-4.997,6.38-7.495,11.458-7.495
								c5.111,0,8.944,2.498,11.499,7.495c2.563,5.005,3.841,12.5,3.841,22.485c0,10.034-1.278,17.546-3.841,22.534
								C104.35,63.905,100.517,66.403,95.406,66.403 M95.406,74.216c8.179,0,14.421-3.231,18.734-9.701
								c4.313-6.462,6.47-15.837,6.47-28.141c0-12.272-2.157-21.639-6.47-28.109c-4.313-6.462-10.555-9.684-18.734-9.684
								c-8.17,0-14.404,3.223-18.717,9.684c-4.313,6.47-6.47,15.837-6.47,28.109c0,12.305,2.157,21.68,6.47,28.141
								C81.002,70.985,87.236,74.216,95.406,74.216"/>
						</g>
						<g>
							<path id="BitstreamVeraSans-Roman-30_8_" d="M159.029,66.403c-5.078,0-8.895-2.498-11.458-7.495
								c-2.547-4.989-3.825-12.5-3.825-22.534c0-9.985,1.278-17.48,3.825-22.485c2.563-4.997,6.38-7.495,11.458-7.495
								c5.111,0,8.944,2.498,11.499,7.495c2.563,5.005,3.841,12.5,3.841,22.485c0,10.034-1.278,17.546-3.841,22.534
								C167.973,63.905,164.14,66.403,159.029,66.403 M159.029,74.216c8.179,0,14.421-3.231,18.734-9.701
								c4.313-6.462,6.47-15.837,6.47-28.141c0-12.272-2.157-21.639-6.47-28.109c-4.313-6.462-10.555-9.684-18.734-9.684
								c-8.17,0-14.404,3.223-18.717,9.684c-4.313,6.47-6.47,15.837-6.47,28.109c0,12.305,2.157,21.68,6.47,28.141
								C144.625,70.985,150.859,74.216,159.029,74.216"/>
						</g>
					</g>
				</g>
			</g>
			<g id="xtick_6">
				<g id="line2d_12">
					<g>
						<g>
							<path id="mc7db9fdffb_5_" stroke="#000000" stroke-width="0.5" stroke-linejoin="round" d="M1095.805,479.09v-4"/>
						</g>
					</g>
				</g>
				<g id="line2d_13">
					<g>
						<g>
							<path id="m5a7d422ac3_5_" stroke="#000000" stroke-width="0.5" stroke-linejoin="round" d="M1095.805,70.413v4"/>
						</g>
					</g>
				</g>
				<g id="text_6">
					<g transform="translate(1081.59237805 492.207672038)scale(0.12 -0.12)">
						<g>
							<path id="BitstreamVeraSans-Roman-31" d="M12.406,8.298H28.52v55.623l-17.537-3.516v8.984l17.439,3.516h9.863V8.298h16.105
								v-8.301H12.406V8.298z"/>
						</g>
						<g>
							<path id="BitstreamVeraSans-Roman-30_9_" d="M95.406,66.403c-5.078,0-8.895-2.498-11.458-7.495
								c-2.547-4.989-3.825-12.5-3.825-22.534c0-9.985,1.277-17.48,3.825-22.485c2.563-4.997,6.38-7.495,11.458-7.495
								c5.11,0,8.943,2.498,11.499,7.495c2.563,5.005,3.841,12.5,3.841,22.485c0,10.034-1.278,17.546-3.841,22.534
								C104.35,63.905,100.517,66.403,95.406,66.403 M95.406,74.216c8.179,0,14.42-3.231,18.733-9.701
								c4.313-6.462,6.47-15.837,6.47-28.141c0-12.272-2.157-21.639-6.47-28.109c-4.313-6.462-10.555-9.684-18.733-9.684
								c-8.171,0-14.404,3.223-18.718,9.684c-4.313,6.47-6.47,15.837-6.47,28.109c0,12.305,2.157,21.68,6.47,28.141
								C81.002,70.985,87.235,74.216,95.406,74.216"/>
						</g>
						<g>
							<path id="BitstreamVeraSans-Roman-30_10_" d="M159.029,66.403c-5.078,0-8.895-2.498-11.458-7.495
								c-2.547-4.989-3.825-12.5-3.825-22.534c0-9.985,1.278-17.48,3.825-22.485c2.563-4.997,6.38-7.495,11.458-7.495
								c5.111,0,8.944,2.498,11.499,7.495c2.563,5.005,3.841,12.5,3.841,22.485c0,10.034-1.278,17.546-3.841,22.534
								C167.973,63.905,164.14,66.403,159.029,66.403 M159.029,74.216c8.179,0,14.421-3.231,18.734-9.701
								c4.313-6.462,6.47-15.837,6.47-28.141c0-12.272-2.157-21.639-6.47-28.109c-4.313-6.462-10.555-9.684-18.734-9.684
								c-8.17,0-14.404,3.223-18.717,9.684c-4.313,6.47-6.47,15.837-6.47,28.109c0,12.305,2.157,21.68,6.47,28.141
								C144.625,70.985,150.858,74.216,159.029,74.216"/>
						</g>
						<g>
							<path id="BitstreamVeraSans-Roman-30_11_" d="M222.652,66.403c-5.078,0-8.895-2.498-11.458-7.495
								c-2.547-4.989-3.825-12.5-3.825-22.534c0-9.985,1.278-17.48,3.825-22.485c2.563-4.997,6.38-7.495,11.458-7.495
								c5.111,0,8.944,2.498,11.499,7.495c2.563,5.005,3.841,12.5,3.841,22.485c0,10.034-1.278,17.546-3.841,22.534
								C231.596,63.905,227.763,66.403,222.652,66.403 M222.652,74.216c8.179,0,14.421-3.231,18.734-9.701
								c4.313-6.462,6.47-15.837,6.47-28.141c0-12.272-2.157-21.639-6.47-28.109c-4.313-6.462-10.555-9.684-18.734-9.684
								c-8.17,0-14.404,3.223-18.717,9.684c-4.313,6.47-6.47,15.837-6.47,28.109c0,12.305,2.157,21.68,6.47,28.141
								C208.248,70.985,214.481,74.216,222.652,74.216"/>
						</g>
					</g>
				</g>
			</g>
		</g>
		<g id="matplotlib.axis_2">
			<g id="ytick_1">
				<g id="line2d_14">
					<g>
						<g>
							<path id="md7965d1ba0" stroke="#000000" stroke-width="0.5" stroke-linejoin="round" d="M62.216,479.09h4"/>
						</g>
					</g>
				</g>
				<g id="line2d_15">
					<g>
						<g>
							<path id="md9a1c1a7cd" stroke="#000000" stroke-width="0.5" stroke-linejoin="round" d="M1095.805,479.09h-4"/>
						</g>
					</g>
				</g>
				<g id="text_7">
					<g transform="translate(52.1691528746 482.400797038)scale(0.12 -0.12)">
						<g>
							<path id="BitstreamVeraSans-Roman-30_12_" d="M31.783,66.409c-5.074,0-8.891-2.506-11.454-7.503
								c-2.551-4.989-3.829-12.5-3.829-22.534c0-9.985,1.278-17.48,3.829-22.485c2.563-4.997,6.38-7.495,11.454-7.495
								c5.115,0,8.948,2.498,11.499,7.495c2.563,5.005,3.845,12.5,3.845,22.485c0,10.034-1.282,17.546-3.845,22.534
								C40.73,63.903,36.897,66.409,31.783,66.409 M31.783,74.222c8.179,0,14.421-3.239,18.734-9.709
								c4.313-6.453,6.47-15.837,6.47-28.141c0-12.264-2.157-21.639-6.47-28.109C46.203,1.81,39.961-1.421,31.783-1.421
								c-8.167,0-14.408,3.231-18.717,9.684c-4.313,6.47-6.47,15.845-6.47,28.109c0,12.305,2.156,21.688,6.47,28.141
								C17.375,70.983,23.616,74.222,31.783,74.222"/>
						</g>
					</g>
				</g>
			</g>
			<g id="ytick_2">
				<g id="line2d_16">
					<g>
						<g>
							<path id="md7965d1ba0_1_" stroke="#000000" stroke-width="0.5" stroke-linejoin="round" d="M62.216,410.977h4"/>
						</g>
					</g>
				</g>
				<g id="line2d_17">
					<g>
						<g>
							<path id="md9a1c1a7cd_1_" stroke="#000000" stroke-width="0.5" stroke-linejoin="round" d="M1095.805,410.977h-4"/>
						</g>
					</g>
				</g>
				<g id="text_8">
					<g transform="translate(37.0341528746 414.28799216)scale(0.12 -0.12)">
						<g>
							<path id="BitstreamVeraSans-Roman-35" d="M10.797,72.908h38.721v-8.317H19.83V46.736c1.428,0.488,2.852,0.854,4.281,1.09
								c1.436,0.244,2.877,0.358,4.313,0.358c8.134,0,14.579-2.23,19.328-6.689c4.761-4.451,7.141-10.49,7.141-18.099
								c0-7.845-2.441-13.949-7.328-18.302c-4.887-4.346-11.772-6.519-20.658-6.519c-3.06,0-6.181,0.26-9.359,0.781
								C14.382-0.123,11.106,0.658,7.721,1.7v9.928c2.926-1.595,5.953-2.783,9.078-3.564s6.425-1.172,9.904-1.172
								c5.635,0,10.095,1.481,13.379,4.435c3.288,2.954,4.936,6.974,4.936,12.069c0,5.062-1.648,9.082-4.936,12.044
								c-3.284,2.962-7.743,4.452-13.379,4.452c-2.633,0-5.265-0.293-7.89-0.871c-2.612-0.586-5.286-1.497-8.016-2.734V72.908z"/>
						</g>
						<g>
							<path id="BitstreamVeraSans-Roman-30_13_" d="M95.404,66.405c-5.07,0-8.887-2.498-11.45-7.495
								c-2.551-4.997-3.829-12.5-3.829-22.534c0-9.985,1.278-17.489,3.829-22.485c2.563-4.997,6.38-7.503,11.45-7.503
								c5.115,0,8.952,2.507,11.503,7.503c2.563,4.997,3.841,12.5,3.841,22.485c0,10.034-1.278,17.537-3.841,22.534
								C104.355,63.907,100.519,66.405,95.404,66.405 M95.404,74.218c8.179,0,14.425-3.231,18.738-9.701
								c4.313-6.462,6.466-15.845,6.466-28.141c0-12.272-2.153-21.639-6.466-28.109c-4.313-6.462-10.559-9.692-18.738-9.692
								c-8.167,0-14.404,3.231-18.718,9.692c-4.313,6.47-6.47,15.837-6.47,28.109c0,12.297,2.156,21.68,6.47,28.141
								C81,70.987,87.237,74.218,95.404,74.218"/>
						</g>
						<g>
							<path id="BitstreamVeraSans-Roman-30_14_" d="M159.027,66.405c-5.07,0-8.887-2.498-11.45-7.495
								c-2.551-4.997-3.829-12.5-3.829-22.534c0-9.985,1.278-17.489,3.829-22.485c2.563-4.997,6.38-7.503,11.45-7.503
								c5.115,0,8.952,2.507,11.503,7.503c2.56,4.997,3.841,12.5,3.841,22.485c0,10.034-1.282,17.537-3.841,22.534
								C167.979,63.907,164.142,66.405,159.027,66.405 M159.027,74.218c8.179,0,14.425-3.231,18.738-9.701
								c4.313-6.462,6.466-15.845,6.466-28.141c0-12.272-2.153-21.639-6.466-28.109c-4.313-6.462-10.559-9.692-18.738-9.692
								c-8.167,0-14.404,3.231-18.718,9.692c-4.313,6.47-6.47,15.837-6.47,28.109c0,12.297,2.156,21.68,6.47,28.141
								C144.623,70.987,150.86,74.218,159.027,74.218"/>
						</g>
					</g>
				</g>
			</g>
			<g id="ytick_3">
				<g id="line2d_18">
					<g>
						<g>
							<path id="md7965d1ba0_2_" stroke="#000000" stroke-width="0.5" stroke-linejoin="round" d="M62.216,342.863h4"/>
						</g>
					</g>
				</g>
				<g id="line2d_19">
					<g>
						<g>
							<path id="md9a1c1a7cd_2_" stroke="#000000" stroke-width="0.5" stroke-linejoin="round" d="M1095.805,342.863h-4"/>
						</g>
					</g>
				</g>
				<g id="text_9">
					<g transform="translate(29.7910278746 346.175187282)scale(0.12 -0.12)">
						<g>
							<path id="BitstreamVeraSans-Roman-31_1_" d="M12.407,8.296h16.109v55.631l-17.529-3.516v8.984l17.436,3.516h9.859V8.296
								h16.109v-8.301H12.407V8.296z"/>
						</g>
						<g>
							<path id="BitstreamVeraSans-Roman-30_15_" d="M95.407,66.401c-5.074,0-8.891-2.49-11.454-7.495
								c-2.551-4.989-3.829-12.5-3.829-22.534c0-9.985,1.278-17.48,3.829-22.477c2.563-5.005,6.38-7.503,11.454-7.503
								c5.115,0,8.948,2.498,11.499,7.503c2.563,4.997,3.841,12.492,3.841,22.477c0,10.034-1.278,17.546-3.841,22.534
								C104.355,63.911,100.522,66.401,95.407,66.401 M95.407,74.214c8.175,0,14.421-3.231,18.734-9.701
								c4.313-6.462,6.47-15.837,6.47-28.141c0-12.272-2.156-21.639-6.47-28.109c-4.313-6.462-10.559-9.684-18.734-9.684
								c-8.167,0-14.408,3.223-18.721,9.684c-4.313,6.47-6.466,15.837-6.466,28.109c0,12.305,2.153,21.68,6.466,28.141
								C80.999,70.983,87.241,74.214,95.407,74.214"/>
						</g>
						<g>
							<path id="BitstreamVeraSans-Roman-30_16_" d="M159.03,66.401c-5.074,0-8.891-2.49-11.454-7.495
								c-2.551-4.989-3.829-12.5-3.829-22.534c0-9.985,1.278-17.48,3.829-22.477c2.563-5.005,6.38-7.503,11.454-7.503
								c5.115,0,8.948,2.498,11.499,7.503c2.563,4.997,3.841,12.492,3.841,22.477c0,10.034-1.278,17.546-3.841,22.534
								C167.978,63.911,164.145,66.401,159.03,66.401 M159.03,74.214c8.175,0,14.421-3.231,18.734-9.701
								c4.313-6.462,6.47-15.837,6.47-28.141c0-12.272-2.156-21.639-6.47-28.109c-4.313-6.462-10.559-9.684-18.734-9.684
								c-8.167,0-14.408,3.223-18.721,9.684c-4.313,6.47-6.466,15.837-6.466,28.109c0,12.305,2.153,21.68,6.466,28.141
								C144.622,70.983,150.864,74.214,159.03,74.214"/>
						</g>
						<g>
							<path id="BitstreamVeraSans-Roman-30_17_" d="M222.653,66.401c-5.074,0-8.891-2.49-11.454-7.495
								c-2.551-4.989-3.829-12.5-3.829-22.534c0-9.985,1.278-17.48,3.829-22.477c2.563-5.005,6.38-7.503,11.454-7.503
								c5.115,0,8.948,2.498,11.499,7.503c2.563,4.997,3.841,12.492,3.841,22.477c0,10.034-1.278,17.546-3.841,22.534
								C231.601,63.911,227.768,66.401,222.653,66.401 M222.653,74.214c8.175,0,14.421-3.231,18.734-9.701
								c4.313-6.462,6.47-15.837,6.47-28.141c0-12.272-2.156-21.639-6.47-28.109c-4.313-6.462-10.559-9.684-18.734-9.684
								c-8.167,0-14.408,3.223-18.721,9.684c-4.313,6.47-6.466,15.837-6.466,28.109c0,12.305,2.153,21.68,6.466,28.141
								C208.245,70.983,214.487,74.214,222.653,74.214"/>
						</g>
					</g>
				</g>
			</g>
			<g id="ytick_4">
				<g id="line2d_20">
					<g>
						<g>
							<path id="md7965d1ba0_3_" stroke="#000000" stroke-width="0.5" stroke-linejoin="round" d="M62.216,274.751h4"/>
						</g>
					</g>
				</g>
				<g id="line2d_21">
					<g>
						<g>
							<path id="md9a1c1a7cd_3_" stroke="#000000" stroke-width="0.5" stroke-linejoin="round" d="M1095.805,274.751h-4"/>
						</g>
					</g>
				</g>
				<g id="text_10">
					<g transform="translate(29.7910278746 278.062382404)scale(0.12 -0.12)">
						<g>
							<path id="BitstreamVeraSans-Roman-31_2_" d="M12.407,8.295h16.109v55.627l-17.529-3.516v8.984l17.436,3.516h9.859V8.295
								h16.109v-8.297H12.407V8.295z"/>
						</g>
						<g>
							<path id="BitstreamVeraSans-Roman-35_1_" d="M74.419,72.907h38.721v-8.313H83.452V46.735
								c1.428,0.488,2.853,0.854,4.281,1.091c1.436,0.24,2.877,0.362,4.313,0.362c8.134,0,14.579-2.23,19.328-6.689
								c4.761-4.456,7.141-10.494,7.141-18.107c0-7.845-2.441-13.944-7.328-18.298C106.3,0.751,99.415-1.421,90.528-1.421
								c-3.06,0-6.181,0.26-9.359,0.781c-3.166,0.521-6.441,1.302-9.827,2.344v9.92c2.926-1.591,5.953-2.779,9.078-3.56
								s6.429-1.172,9.908-1.172c5.635,0,10.091,1.477,13.375,4.435c3.292,2.958,4.936,6.978,4.936,12.064
								c0,5.07-1.644,9.086-4.936,12.044c-3.284,2.97-7.739,4.456-13.375,4.456c-2.637,0-5.265-0.293-7.894-0.875
								c-2.612-0.586-5.286-1.497-8.016-2.734V72.907z"/>
						</g>
						<g>
							<path id="BitstreamVeraSans-Roman-30_18_" d="M159.03,66.405c-5.074,0-8.891-2.499-11.454-7.499
								c-2.551-4.989-3.829-12.5-3.829-22.53c0-9.99,1.278-17.485,3.829-22.485c2.563-5.001,6.38-7.499,11.454-7.499
								c5.115,0,8.948,2.498,11.499,7.499c2.563,5.001,3.841,12.496,3.841,22.485c0,10.03-1.278,17.542-3.841,22.53
								C167.978,63.906,164.145,66.405,159.03,66.405 M159.03,74.218c8.175,0,14.421-3.235,18.734-9.701
								c4.313-6.461,6.47-15.841,6.47-28.141c0-12.272-2.156-21.643-6.47-28.109c-4.313-6.461-10.559-9.688-18.734-9.688
								c-8.167,0-14.408,3.227-18.721,9.688c-4.313,6.466-6.466,15.837-6.466,28.109c0,12.301,2.153,21.68,6.466,28.141
								C144.622,70.983,150.864,74.218,159.03,74.218"/>
						</g>
						<g>
							<path id="BitstreamVeraSans-Roman-30_19_" d="M222.653,66.405c-5.074,0-8.891-2.499-11.454-7.499
								c-2.551-4.989-3.829-12.5-3.829-22.53c0-9.99,1.278-17.485,3.829-22.485c2.563-5.001,6.38-7.499,11.454-7.499
								c5.115,0,8.948,2.498,11.499,7.499c2.563,5.001,3.841,12.496,3.841,22.485c0,10.03-1.278,17.542-3.841,22.53
								C231.601,63.906,227.768,66.405,222.653,66.405 M222.653,74.218c8.175,0,14.421-3.235,18.734-9.701
								c4.313-6.461,6.47-15.841,6.47-28.141c0-12.272-2.156-21.643-6.47-28.109c-4.313-6.461-10.559-9.688-18.734-9.688
								c-8.167,0-14.408,3.227-18.721,9.688c-4.313,6.466-6.466,15.837-6.466,28.109c0,12.301,2.153,21.68,6.466,28.141
								C208.245,70.983,214.487,74.218,222.653,74.218"/>
						</g>
					</g>
				</g>
			</g>
			<g id="ytick_5">
				<g id="line2d_22">
					<g>
						<g>
							<path id="md7965d1ba0_4_" stroke="#000000" stroke-width="0.5" stroke-linejoin="round" d="M62.216,206.638h4"/>
						</g>
					</g>
				</g>
				<g id="line2d_23">
					<g>
						<g>
							<path id="md9a1c1a7cd_4_" stroke="#000000" stroke-width="0.5" stroke-linejoin="round" d="M1095.805,206.638h-4"/>
						</g>
					</g>
				</g>
				<g id="text_11">
					<g transform="translate(29.3522778746 209.949577526)scale(0.12 -0.12)">
						<g>
							<path id="BitstreamVeraSans-Roman-32_1_" d="M19.188,8.296h34.424v-8.297H7.327v8.297c3.74,3.878,8.842,9.074,15.3,15.596
								c6.47,6.531,10.531,10.742,12.187,12.638c3.158,3.544,5.359,6.543,6.608,9c1.261,2.458,1.892,4.875,1.892,7.251
								c0,3.874-1.359,7.031-4.077,9.469c-2.718,2.445-6.262,3.67-10.624,3.67c-3.096,0-6.36-0.537-9.798-1.607
								c-3.426-1.074-7.096-2.706-11.003-4.891v9.969c3.971,1.591,7.678,2.795,11.129,3.609c3.455,0.81,6.616,1.217,9.481,1.217
								c7.552,0,13.574-1.888,18.062-5.672c4.492-3.768,6.738-8.809,6.738-15.125c0-2.999-0.565-5.843-1.688-8.529
								c-1.115-2.677-3.158-5.839-6.128-9.485c-0.81-0.948-3.398-3.678-7.764-8.187C33.287,22.708,27.135,16.401,19.188,8.296"/>
						</g>
						<g>
							<path id="BitstreamVeraSans-Roman-30_20_" d="M95.405,66.405c-5.074,0-8.891-2.498-11.454-7.499
								c-2.551-4.989-3.825-12.5-3.825-22.53c0-9.989,1.274-17.484,3.825-22.485c2.563-5.001,6.38-7.499,11.454-7.499
								c5.115,0,8.948,2.498,11.499,7.499c2.563,5.001,3.845,12.496,3.845,22.485c0,10.03-1.282,17.542-3.845,22.53
								C104.353,63.907,100.52,66.405,95.405,66.405 M95.405,74.218c8.179,0,14.42-3.235,18.734-9.7
								c4.313-6.462,6.47-15.841,6.47-28.141c0-12.272-2.156-21.643-6.47-28.109c-4.313-6.462-10.555-9.688-18.734-9.688
								c-8.167,0-14.404,3.227-18.718,9.688c-4.313,6.466-6.47,15.837-6.47,28.109c0,12.301,2.156,21.68,6.47,28.141
								C81.001,70.983,87.239,74.218,95.405,74.218"/>
						</g>
						<g>
							<path id="BitstreamVeraSans-Roman-30_21_" d="M159.028,66.405c-5.074,0-8.891-2.498-11.454-7.499
								c-2.551-4.989-3.825-12.5-3.825-22.53c0-9.989,1.274-17.484,3.825-22.485c2.563-5.001,6.38-7.499,11.454-7.499
								c5.115,0,8.948,2.498,11.499,7.499c2.563,5.001,3.845,12.496,3.845,22.485c0,10.03-1.282,17.542-3.845,22.53
								C167.976,63.907,164.143,66.405,159.028,66.405 M159.028,74.218c8.179,0,14.42-3.235,18.734-9.7
								c4.313-6.462,6.47-15.841,6.47-28.141c0-12.272-2.156-21.643-6.47-28.109c-4.313-6.462-10.555-9.688-18.734-9.688
								c-8.167,0-14.404,3.227-18.718,9.688c-4.313,6.466-6.47,15.837-6.47,28.109c0,12.301,2.156,21.68,6.47,28.141
								C144.624,70.983,150.862,74.218,159.028,74.218"/>
						</g>
						<g>
							<path id="BitstreamVeraSans-Roman-30_22_" d="M222.651,66.405c-5.074,0-8.891-2.498-11.454-7.499
								c-2.551-4.989-3.825-12.5-3.825-22.53c0-9.989,1.274-17.484,3.825-22.485c2.563-5.001,6.38-7.499,11.454-7.499
								c5.115,0,8.948,2.498,11.499,7.499c2.563,5.001,3.845,12.496,3.845,22.485c0,10.03-1.282,17.542-3.845,22.53
								C231.599,63.907,227.766,66.405,222.651,66.405 M222.651,74.218c8.179,0,14.42-3.235,18.734-9.7
								c4.313-6.462,6.47-15.841,6.47-28.141c0-12.272-2.156-21.643-6.47-28.109c-4.313-6.462-10.555-9.688-18.734-9.688
								c-8.167,0-14.404,3.227-18.718,9.688c-4.313,6.466-6.47,15.837-6.47,28.109c0,12.301,2.156,21.68,6.47,28.141
								C208.247,70.983,214.485,74.218,222.651,74.218"/>
						</g>
					</g>
				</g>
			</g>
			<g id="ytick_6">
				<g id="line2d_24">
					<g>
						<g>
							<path id="md7965d1ba0_5_" stroke="#000000" stroke-width="0.5" stroke-linejoin="round" d="M62.216,138.525h4"/>
						</g>
					</g>
				</g>
				<g id="line2d_25">
					<g>
						<g>
							<path id="md9a1c1a7cd_5_" stroke="#000000" stroke-width="0.5" stroke-linejoin="round" d="M1095.805,138.525h-4"/>
						</g>
					</g>
				</g>
				<g id="text_12">
					<g transform="translate(29.3522778746 141.836772648)scale(0.12 -0.12)">
						<g>
							<path id="BitstreamVeraSans-Roman-32_2_" d="M19.188,8.295h34.424v-8.297H7.327v8.297c3.74,3.878,8.842,9.074,15.3,15.596
								c6.47,6.531,10.531,10.742,12.187,12.638c3.158,3.544,5.359,6.543,6.608,9.001c1.261,2.458,1.892,4.875,1.892,7.251
								c0,3.874-1.359,7.031-4.077,9.469c-2.718,2.446-6.262,3.67-10.624,3.67c-3.096,0-6.36-0.537-9.798-1.607
								c-3.426-1.074-7.096-2.706-11.003-4.891v9.969c3.971,1.591,7.678,2.795,11.129,3.609c3.455,0.81,6.616,1.217,9.481,1.217
								c7.552,0,13.574-1.888,18.062-5.672c4.492-3.768,6.738-8.809,6.738-15.125c0-2.999-0.565-5.843-1.688-8.529
								c-1.115-2.677-3.158-5.839-6.128-9.485c-0.81-0.948-3.398-3.678-7.764-8.187C33.287,22.708,27.135,16.401,19.188,8.295"/>
						</g>
						<g>
							<path id="BitstreamVeraSans-Roman-35_2_" d="M74.421,72.907h38.717v-8.313H83.45V46.735c1.428,0.488,2.856,0.854,4.285,1.091
								c1.436,0.24,2.873,0.362,4.309,0.362c8.138,0,14.579-2.23,19.332-6.689c4.757-4.456,7.137-10.494,7.137-18.107
								c0-7.845-2.441-13.944-7.328-18.298c-4.883-4.342-11.768-6.514-20.654-6.514c-3.064,0-6.181,0.26-9.359,0.781
								c-3.166,0.521-6.445,1.302-9.831,2.344v9.92c2.93-1.591,5.953-2.779,9.078-3.56s6.429-1.172,9.908-1.172
								c5.635,0,10.095,1.477,13.375,4.435c3.292,2.958,4.936,6.982,4.936,12.064c0,5.074-1.644,9.086-4.936,12.044
								c-3.28,2.97-7.739,4.456-13.375,4.456c-2.637,0-5.265-0.293-7.89-0.875c-2.616-0.586-5.286-1.497-8.016-2.734V72.907z"/>
						</g>
						<g>
							<path id="BitstreamVeraSans-Roman-30_23_" d="M159.028,66.405c-5.074,0-8.891-2.499-11.454-7.499
								c-2.551-4.989-3.825-12.5-3.825-22.53c0-9.99,1.274-17.485,3.825-22.485c2.563-5.001,6.38-7.499,11.454-7.499
								c5.115,0,8.948,2.498,11.499,7.499c2.563,5.001,3.845,12.496,3.845,22.485c0,10.03-1.282,17.542-3.845,22.53
								C167.976,63.906,164.143,66.405,159.028,66.405 M159.028,74.218c8.179,0,14.42-3.235,18.734-9.701
								c4.313-6.461,6.47-15.841,6.47-28.141c0-12.272-2.156-21.643-6.47-28.109c-4.313-6.461-10.555-9.688-18.734-9.688
								c-8.167,0-14.404,3.227-18.718,9.688c-4.313,6.466-6.47,15.837-6.47,28.109c0,12.301,2.156,21.68,6.47,28.141
								C144.624,70.983,150.861,74.218,159.028,74.218"/>
						</g>
						<g>
							<path id="BitstreamVeraSans-Roman-30_24_" d="M222.651,66.405c-5.074,0-8.891-2.499-11.454-7.499
								c-2.551-4.989-3.825-12.5-3.825-22.53c0-9.99,1.274-17.485,3.825-22.485c2.563-5.001,6.38-7.499,11.454-7.499
								c5.115,0,8.948,2.498,11.499,7.499c2.563,5.001,3.845,12.496,3.845,22.485c0,10.03-1.282,17.542-3.845,22.53
								C231.599,63.906,227.766,66.405,222.651,66.405 M222.651,74.218c8.179,0,14.42-3.235,18.734-9.701
								c4.313-6.461,6.47-15.841,6.47-28.141c0-12.272-2.156-21.643-6.47-28.109c-4.313-6.461-10.555-9.688-18.734-9.688
								c-8.167,0-14.404,3.227-18.718,9.688c-4.313,6.466-6.47,15.837-6.47,28.109c0,12.301,2.156,21.68,6.47,28.141
								C208.247,70.983,214.484,74.218,222.651,74.218"/>
						</g>
					</g>
				</g>
			</g>
			<g id="ytick_7">
				<g id="line2d_26">
					<g>
						<g>
							<path id="md7965d1ba0_6_" stroke="#000000" stroke-width="0.5" stroke-linejoin="round" d="M62.216,70.413h4"/>
						</g>
					</g>
				</g>
				<g id="line2d_27">
					<g>
						<g>
							<path id="md9a1c1a7cd_6_" stroke="#000000" stroke-width="0.5" stroke-linejoin="round" d="M1095.805,70.413h-4"/>
						</g>
					</g>
				</g>
				<g id="text_13">
					<g transform="translate(29.3879028746 73.72396777)scale(0.12 -0.12)">
						<g>
							<path id="BitstreamVeraSans-Roman-33" d="M40.579,39.313c4.72-1.013,8.402-3.117,11.047-6.315
								c2.657-3.186,3.983-7.125,3.983-11.812c0-7.186-2.474-12.752-7.422-16.703C43.24,0.548,36.209-1.421,27.094-1.421
								c-3.052,0-6.197,0.301-9.436,0.903c-3.243,0.606-6.583,1.514-10.034,2.722v9.513c2.73-1.591,5.721-2.795,8.972-3.609
								c3.259-0.814,6.665-1.217,10.217-1.217c6.177,0,10.885,1.217,14.124,3.654c3.239,2.438,4.858,5.986,4.858,10.641
								c0,4.305-1.501,7.662-4.512,10.079c-3.011,2.429-7.198,3.642-12.565,3.642h-8.5v8.109h8.891
								c4.846,0,8.553,0.969,11.125,2.905c2.576,1.937,3.862,4.728,3.862,8.374c0,3.74-1.327,6.612-3.984,8.61
								c-2.649,2.01-6.445,3.015-11.393,3.015c-2.706,0-5.607-0.297-8.704-0.891c-3.092-0.582-6.494-1.489-10.201-2.718v8.781
								c3.752,1.042,7.259,1.823,10.531,2.344c3.271,0.521,6.356,0.781,9.249,0.781c7.491,0,13.411-1.701,17.765-5.106
								c4.366-3.398,6.547-7.992,6.547-13.782c0-4.045-1.156-7.455-3.467-10.234C48.127,42.312,44.839,40.384,40.579,39.313"/>
						</g>
						<g>
							<path id="BitstreamVeraSans-Roman-30_25_" d="M95.405,66.405c-5.074,0-8.891-2.498-11.454-7.499
								c-2.551-4.989-3.829-12.5-3.829-22.53c0-9.989,1.278-17.484,3.829-22.485c2.563-5.001,6.38-7.499,11.454-7.499
								c5.115,0,8.948,2.498,11.499,7.499c2.563,5.001,3.845,12.496,3.845,22.485c0,10.03-1.282,17.542-3.845,22.53
								C104.352,63.906,100.519,66.405,95.405,66.405 M95.405,74.217c8.179,0,14.421-3.235,18.734-9.7
								c4.313-6.462,6.47-15.841,6.47-28.141c0-12.272-2.157-21.643-6.47-28.109c-4.313-6.462-10.555-9.688-18.734-9.688
								c-8.167,0-14.408,3.227-18.717,9.688c-4.313,6.466-6.47,15.837-6.47,28.109c0,12.301,2.156,21.68,6.47,28.141
								C80.996,70.982,87.238,74.217,95.405,74.217"/>
						</g>
						<g>
							<path id="BitstreamVeraSans-Roman-30_26_" d="M159.028,66.405c-5.074,0-8.891-2.498-11.454-7.499
								c-2.551-4.989-3.829-12.5-3.829-22.53c0-9.989,1.278-17.484,3.829-22.485c2.563-5.001,6.38-7.499,11.454-7.499
								c5.115,0,8.948,2.498,11.499,7.499c2.563,5.001,3.845,12.496,3.845,22.485c0,10.03-1.282,17.542-3.845,22.53
								C167.975,63.906,164.142,66.405,159.028,66.405 M159.028,74.217c8.179,0,14.421-3.235,18.734-9.7
								c4.313-6.462,6.47-15.841,6.47-28.141c0-12.272-2.157-21.643-6.47-28.109c-4.313-6.462-10.555-9.688-18.734-9.688
								c-8.167,0-14.408,3.227-18.717,9.688c-4.313,6.466-6.47,15.837-6.47,28.109c0,12.301,2.156,21.68,6.47,28.141
								C144.619,70.982,150.861,74.217,159.028,74.217"/>
						</g>
						<g>
							<path id="BitstreamVeraSans-Roman-30_27_" d="M222.651,66.405c-5.074,0-8.891-2.498-11.454-7.499
								c-2.551-4.989-3.829-12.5-3.829-22.53c0-9.989,1.278-17.484,3.829-22.485c2.563-5.001,6.38-7.499,11.454-7.499
								c5.115,0,8.948,2.498,11.499,7.499c2.563,5.001,3.845,12.496,3.845,22.485c0,10.03-1.282,17.542-3.845,22.53
								C231.598,63.906,227.765,66.405,222.651,66.405 M222.651,74.217c8.179,0,14.421-3.235,18.734-9.7
								c4.313-6.462,6.47-15.841,6.47-28.141c0-12.272-2.157-21.643-6.47-28.109c-4.313-6.462-10.555-9.688-18.734-9.688
								c-8.167,0-14.408,3.227-18.717,9.688c-4.313,6.466-6.47,15.837-6.47,28.109c0,12.301,2.156,21.68,6.47,28.141
								C208.242,70.982,214.484,74.217,222.651,74.217"/>
						</g>
					</g>
				</g>
			</g>
		</g>
	</g>
</g>
</svg>
