<?xml version="1.0" encoding="utf-8" standalone="no"?>
<!DOCTYPE svg PUBLIC "-//W3C//DTD SVG 1.1//EN"
  "http://www.w3.org/Graphics/SVG/1.1/DTD/svg11.dtd">
<!-- Created with matplotlib (http://matplotlib.org/) -->
<svg height="609pt" version="1.1" viewBox="0 0 1152 609" width="1152pt" xmlns="http://www.w3.org/2000/svg" xmlns:xlink="http://www.w3.org/1999/xlink">
 <defs>
  <style type="text/css">
*{stroke-linecap:butt;stroke-linejoin:round;}
  </style>
 </defs>
 <g id="figure_1">
  <g id="patch_1">
   <path d="
M0 609.3
L1152 609.3
L1152 0
L0 0
z
" style="fill:#ffffff;"/>
  </g>
  <g id="axes_1">
   <g id="patch_2">
    <path d="
M62.216 479.09
L1095.8 479.09
L1095.8 70.4127
L62.216 70.4127
z
" style="fill:#ffffff;"/>
   </g>
   <g id="line2d_1">
    <path clip-path="url(#p245bc5be59)" d="
M62.216 477.591
L63.2496 478.953
L72.5519 477.727
L73.5855 477.455
L74.6191 478.953
L75.6527 476.91
L82.8878 475.003
L83.9214 477.046
L84.955 474.458
L85.9886 478.817
L87.0222 473.913
L93.2237 472.278
L94.2573 476.774
L96.3245 471.461
L97.358 478.681
L98.3916 470.916
L103.56 469.554
L104.593 476.501
L107.694 468.464
L108.728 478.545
L109.761 467.919
L113.895 466.829
L114.929 476.229
L119.063 465.467
L120.097 478.408
L121.131 464.922
L124.231 464.105
L125.265 475.956
L130.433 462.47
L131.466 478.272
L132.5 461.925
L134.567 461.38
L135.601 475.684
L141.802 459.473
L142.836 478.136
L143.87 458.928
L144.903 458.656
L145.937 475.411
L153.172 456.476
L154.205 478
L155.239 455.931
L156.273 477.864
L165.575 453.207
L166.609 477.727
L167.642 452.389
L174.877 449.529
L175.911 452.526
L176.944 477.455
L177.978 477.319
L179.012 447.894
L186.247 445.033
L187.28 477.182
L188.314 474.594
L189.347 478.953
L190.381 443.398
L196.583 440.946
L197.616 476.91
L198.65 471.87
L199.683 439.72
L206.918 436.86
L207.952 476.637
L208.986 469.145
L210.019 435.634
L217.254 432.773
L218.288 476.365
L219.322 466.421
L220.355 431.547
L227.59 428.686
L228.624 476.093
L229.657 463.696
L230.691 427.46
L237.926 424.599
L238.96 475.82
L239.993 460.972
L241.027 423.373
L248.262 420.513
L249.296 475.548
L250.329 458.247
L251.363 419.287
L258.598 416.426
L260.665 475.275
L261.699 415.2
L268.934 412.339
L271.001 475.003
L272.035 411.113
L278.236 408.661
L279.27 452.117
L280.303 448.03
L281.337 474.73
L282.37 477.046
L283.404 435.77
L289.606 411.249
L291.673 474.458
L292.706 474.322
L293.74 402.531
L299.941 400.079
L300.975 443.671
L302.009 474.185
L303.042 471.597
L304.076 478.817
L305.109 398.035
L310.277 395.992
L311.311 443.262
L312.345 473.913
L313.378 468.873
L314.412 394.357
L320.613 391.905
L321.647 442.854
L322.68 473.641
L323.714 466.148
L324.748 390.27
L330.949 387.818
L331.983 442.445
L333.016 473.368
L334.05 463.424
L335.083 386.184
L341.285 383.732
L342.319 442.036
L343.352 473.096
L344.386 460.699
L345.419 382.097
L351.621 379.645
L352.654 441.628
L353.688 472.823
L354.722 457.975
L355.755 378.01
L361.957 375.558
L362.99 441.219
L364.024 400.351
L365.058 472.551
L366.091 373.923
L372.293 371.471
L373.326 440.81
L374.36 399.942
L375.393 472.278
L376.427 369.837
L381.595 367.793
L382.629 451.708
L384.696 443.535
L385.729 472.006
L386.763 476.774
L387.797 431.274
L392.964 410.841
L393.998 439.993
L395.032 402.667
L396.065 471.733
L397.099 474.049
L398.132 390.407
L403.3 369.973
L404.334 439.584
L405.368 398.716
L406.401 471.461
L407.435 471.325
L408.468 357.168
L413.636 355.124
L414.67 439.175
L415.703 398.308
L416.737 471.188
L417.771 468.6
L418.804 478.681
L419.838 352.672
L423.972 351.037
L425.006 438.767
L426.039 397.899
L427.073 470.916
L428.106 465.876
L429.14 348.994
L434.308 346.951
L435.342 438.358
L436.375 397.49
L437.409 470.644
L438.442 463.151
L439.476 344.907
L444.644 342.864
L445.677 437.949
L446.711 397.082
L447.745 470.371
L448.778 460.427
L449.812 340.821
L454.98 338.777
L456.013 437.541
L457.047 396.673
L458.081 470.099
L459.114 457.702
L460.148 336.734
L465.316 334.69
L466.349 437.132
L468.416 355.397
L469.45 469.826
L470.484 332.647
L475.652 330.604
L476.685 436.723
L478.752 354.988
L479.786 469.554
L480.82 328.56
L484.954 326.926
L485.987 451.3
L489.088 439.039
L490.122 469.281
L491.155 476.501
L492.189 426.779
L496.323 410.432
L497.357 435.906
L498.391 402.258
L499.424 398.172
L500.458 469.009
L501.491 473.777
L502.525 385.911
L506.659 369.564
L507.693 435.497
L509.76 357.304
L510.794 468.736
L511.827 471.052
L512.861 345.044
L516.995 328.696
L518.029 435.089
L520.096 353.353
L521.129 468.464
L522.163 468.328
L523.197 311.804
L527.331 310.17
L528.365 434.68
L530.432 352.945
L531.465 468.191
L532.499 465.603
L533.533 478.545
L534.566 307.309
L537.667 306.083
L538.7 434.271
L540.768 352.536
L541.801 467.919
L542.835 462.879
L543.868 303.631
L548.003 301.996
L549.036 433.863
L551.104 352.127
L552.137 467.647
L553.171 460.154
L554.204 299.544
L558.339 297.909
L559.372 433.454
L561.439 351.719
L562.473 467.374
L563.507 457.43
L564.54 295.457
L568.675 293.823
L569.708 433.045
L572.809 310.442
L573.843 467.102
L574.876 291.371
L579.01 289.736
L580.044 432.637
L583.145 310.034
L584.178 466.829
L585.212 287.284
L588.313 286.058
L589.346 450.891
L593.481 434.544
L594.514 466.557
L595.548 476.229
L596.581 422.283
L599.682 410.023
L600.716 431.819
L601.749 401.85
L603.817 393.676
L604.85 466.284
L605.884 473.504
L606.917 381.416
L610.018 369.155
L611.052 431.411
L612.085 390.543
L613.119 356.895
L614.152 352.808
L615.186 466.012
L616.22 470.78
L617.253 340.548
L620.354 328.288
L621.388 431.002
L624.488 311.941
L625.522 465.739
L626.556 468.055
L627.589 299.68
L630.69 287.42
L631.723 430.593
L634.824 307.99
L635.858 465.467
L636.891 465.331
L637.925 266.441
L641.026 265.215
L642.059 430.185
L645.16 307.582
L646.194 465.195
L647.227 462.606
L648.261 478.408
L649.294 261.946
L651.362 261.129
L652.395 429.776
L655.496 307.173
L656.53 464.922
L657.563 459.882
L658.597 258.268
L661.698 257.042
L662.731 429.367
L665.832 306.764
L666.866 464.65
L667.899 457.157
L668.933 254.181
L672.033 252.955
L673.067 428.959
L677.201 265.488
L678.235 464.377
L679.269 250.094
L682.369 248.868
L683.403 428.55
L687.537 265.079
L688.571 464.105
L689.604 246.008
L691.672 245.19
L692.705 450.482
L697.873 430.048
L698.907 463.832
L699.94 475.956
L700.974 417.788
L703.041 409.614
L704.075 427.732
L705.108 401.441
L708.209 389.181
L709.243 463.56
L710.276 473.232
L711.31 376.92
L713.377 368.747
L714.411 427.324
L715.444 386.456
L716.478 356.486
L718.545 348.313
L719.579 463.287
L720.612 470.507
L721.646 336.053
L723.713 327.879
L724.746 426.915
L726.814 345.18
L727.847 311.532
L728.881 307.445
L729.914 463.015
L730.948 467.783
L731.982 295.185
L734.049 287.011
L735.082 426.506
L739.217 266.578
L740.25 462.742
L741.284 465.058
L742.317 254.317
L744.385 246.144
L745.418 426.098
L749.553 262.627
L750.586 462.47
L751.62 462.334
L752.653 221.078
L754.721 220.261
L755.754 425.689
L759.889 262.218
L760.922 462.198
L761.956 459.609
L762.989 478.272
L764.023 216.583
L765.056 216.174
L766.09 425.28
L770.224 261.81
L771.258 461.925
L772.292 456.885
L773.325 212.905
L775.392 212.087
L776.426 424.872
L781.594 220.533
L782.627 461.653
L783.661 208.818
L785.728 208.001
L786.762 424.463
L791.93 220.125
L792.963 461.38
L793.997 204.731
L795.031 204.322
L796.064 450.073
L802.266 425.553
L803.299 461.108
L804.333 475.684
L805.366 413.293
L806.4 409.206
L807.434 423.646
L808.467 401.032
L812.602 384.685
L813.635 460.835
L814.669 472.959
L815.702 372.425
L816.736 368.338
L817.769 423.237
L818.803 382.369
L819.837 356.078
L822.937 343.818
L823.971 460.563
L825.005 470.235
L826.038 331.557
L827.072 327.47
L828.105 422.828
L830.173 341.093
L831.206 311.123
L833.273 302.95
L834.307 460.29
L835.34 467.51
L836.374 290.69
L837.408 286.603
L838.441 422.42
L841.542 299.817
L842.576 266.169
L843.609 262.082
L844.643 460.018
L845.676 464.786
L846.71 249.822
L847.744 245.735
L848.777 422.011
L853.945 221.214
L854.979 459.746
L856.012 462.061
L857.046 208.954
L858.079 204.867
L859.113 421.602
L864.281 217.264
L865.315 459.473
L866.348 459.337
L867.382 175.715
L868.415 175.306
L869.449 421.194
L874.617 216.855
L875.65 459.201
L876.684 456.612
L877.718 478.136
L878.751 171.22
L879.785 420.785
L885.986 175.579
L887.02 458.928
L888.054 167.542
L889.087 167.133
L890.121 420.376
L896.322 175.17
L897.356 458.656
L898.389 163.455
L899.423 449.665
L906.658 421.057
L907.692 458.383
L908.725 475.411
L909.759 408.797
L910.792 419.559
L911.826 400.624
L916.994 380.19
L918.028 458.111
L919.061 472.687
L920.095 367.929
L921.128 419.15
L922.162 378.283
L923.196 355.669
L927.33 339.322
L928.363 457.838
L929.397 469.962
L930.431 327.062
L931.464 418.742
L933.531 337.006
L934.565 310.715
L937.666 298.454
L938.699 457.566
L939.733 467.238
L940.767 286.194
L941.8 418.333
L944.901 295.73
L945.934 265.76
L948.002 257.587
L949.035 457.293
L950.069 464.513
L951.102 245.326
L952.136 417.924
L956.27 254.454
L957.304 220.806
L958.338 216.719
L959.371 457.021
L960.405 461.789
L961.438 204.459
L962.472 417.516
L968.673 175.851
L969.707 456.749
L970.741 459.064
L971.774 163.591
L972.808 417.107
L979.009 171.901
L980.043 456.476
L981.077 456.34
L982.11 130.352
L983.144 478
L984.177 375.831
L990.379 130.624
L991.412 456.204
L992.446 126.265
L993.48 416.29
L1000.71 130.216
L1001.75 455.931
L1002.78 477.864
L1003.82 449.256
L1011.05 420.649
L1012.08 455.659
L1013.12 475.139
L1014.15 415.472
L1015.18 404.302
L1021.39 379.781
L1022.42 455.386
L1023.45 472.414
L1024.49 415.064
L1025.52 374.196
L1026.55 359.347
L1031.72 338.913
L1032.76 455.114
L1033.79 469.69
L1034.82 414.655
L1036.89 332.919
L1037.92 314.393
L1042.06 298.046
L1043.09 454.841
L1044.13 466.965
L1045.16 414.246
L1048.26 291.643
L1049.29 269.438
L1052.39 257.178
L1053.43 454.569
L1054.46 464.241
L1055.49 413.837
L1059.63 250.367
L1060.66 224.484
L1062.73 216.31
L1063.76 454.296
L1064.8 461.516
L1065.83 413.429
L1071 209.09
L1072.03 179.529
L1073.07 175.443
L1074.1 454.024
L1075.13 458.792
L1077.2 372.152
L1082.37 167.814
L1083.4 134.575
L1084.44 453.752
L1085.47 456.067
L1086.5 453.479
L1094.77 126.538
L1094.77 126.538" style="fill:none;stroke:#0000ff;stroke-linecap:square;"/>
   </g>
   <g id="patch_3">
    <path d="
M62.216 70.4127
L1095.8 70.4127" style="fill:none;stroke:#000000;stroke-linecap:square;stroke-linejoin:miter;"/>
   </g>
   <g id="patch_4">
    <path d="
M1095.8 479.09
L1095.8 70.4127" style="fill:none;stroke:#000000;stroke-linecap:square;stroke-linejoin:miter;"/>
   </g>
   <g id="patch_5">
    <path d="
M62.216 479.09
L1095.8 479.09" style="fill:none;stroke:#000000;stroke-linecap:square;stroke-linejoin:miter;"/>
   </g>
   <g id="patch_6">
    <path d="
M62.216 479.09
L62.216 70.4127" style="fill:none;stroke:#000000;stroke-linecap:square;stroke-linejoin:miter;"/>
   </g>
   <g id="matplotlib.axis_1">
    <g id="xtick_1">
     <g id="line2d_2">
      <defs>
       <path d="
M0 0
L0 -4" id="mc7db9fdffb" style="stroke:#000000;stroke-width:0.5;"/>
      </defs>
      <g>
       <use style="stroke:#000000;stroke-width:0.5;" x="62.2160278746" xlink:href="#mc7db9fdffb" y="479.089547038"/>
      </g>
     </g>
     <g id="line2d_3">
      <defs>
       <path d="
M0 0
L0 4" id="m5a7d422ac3" style="stroke:#000000;stroke-width:0.5;"/>
      </defs>
      <g>
       <use style="stroke:#000000;stroke-width:0.5;" x="62.2160278746" xlink:href="#m5a7d422ac3" y="70.41271777"/>
      </g>
     </g>
     <g id="text_1">
      <!-- 0 -->
      <defs>
       <path d="
M31.7812 66.4062
Q24.1719 66.4062 20.3281 58.9062
Q16.5 51.4219 16.5 36.375
Q16.5 21.3906 20.3281 13.8906
Q24.1719 6.39062 31.7812 6.39062
Q39.4531 6.39062 43.2812 13.8906
Q47.125 21.3906 47.125 36.375
Q47.125 51.4219 43.2812 58.9062
Q39.4531 66.4062 31.7812 66.4062
M31.7812 74.2188
Q44.0469 74.2188 50.5156 64.5156
Q56.9844 54.8281 56.9844 36.375
Q56.9844 17.9688 50.5156 8.26562
Q44.0469 -1.42188 31.7812 -1.42188
Q19.5312 -1.42188 13.0625 8.26562
Q6.59375 17.9688 6.59375 36.375
Q6.59375 54.8281 13.0625 64.5156
Q19.5312 74.2188 31.7812 74.2188" id="BitstreamVeraSans-Roman-30"/>
      </defs>
      <g transform="translate(59.1925903746 492.207672038)scale(0.12 -0.12)">
       <use xlink:href="#BitstreamVeraSans-Roman-30"/>
      </g>
     </g>
    </g>
    <g id="xtick_2">
     <g id="line2d_4">
      <g>
       <use style="stroke:#000000;stroke-width:0.5;" x="268.933797909" xlink:href="#mc7db9fdffb" y="479.089547038"/>
      </g>
     </g>
     <g id="line2d_5">
      <g>
       <use style="stroke:#000000;stroke-width:0.5;" x="268.933797909" xlink:href="#m5a7d422ac3" y="70.41271777"/>
      </g>
     </g>
     <g id="text_2">
      <!-- 200 -->
      <defs>
       <path d="
M19.1875 8.29688
L53.6094 8.29688
L53.6094 0
L7.32812 0
L7.32812 8.29688
Q12.9375 14.1094 22.625 23.8906
Q32.3281 33.6875 34.8125 36.5312
Q39.5469 41.8438 41.4219 45.5312
Q43.3125 49.2188 43.3125 52.7812
Q43.3125 58.5938 39.2344 62.25
Q35.1562 65.9219 28.6094 65.9219
Q23.9688 65.9219 18.8125 64.3125
Q13.6719 62.7031 7.8125 59.4219
L7.8125 69.3906
Q13.7656 71.7812 18.9375 73
Q24.125 74.2188 28.4219 74.2188
Q39.75 74.2188 46.4844 68.5469
Q53.2188 62.8906 53.2188 53.4219
Q53.2188 48.9219 51.5312 44.8906
Q49.8594 40.875 45.4062 35.4062
Q44.1875 33.9844 37.6406 27.2188
Q31.1094 20.4531 19.1875 8.29688" id="BitstreamVeraSans-Roman-32"/>
      </defs>
      <g transform="translate(258.319422909 492.207672038)scale(0.12 -0.12)">
       <use xlink:href="#BitstreamVeraSans-Roman-32"/>
       <use x="63.623046875" xlink:href="#BitstreamVeraSans-Roman-30"/>
       <use x="127.24609375" xlink:href="#BitstreamVeraSans-Roman-30"/>
      </g>
     </g>
    </g>
    <g id="xtick_3">
     <g id="line2d_6">
      <g>
       <use style="stroke:#000000;stroke-width:0.5;" x="475.651567944" xlink:href="#mc7db9fdffb" y="479.089547038"/>
      </g>
     </g>
     <g id="line2d_7">
      <g>
       <use style="stroke:#000000;stroke-width:0.5;" x="475.651567944" xlink:href="#m5a7d422ac3" y="70.41271777"/>
      </g>
     </g>
     <g id="text_3">
      <!-- 400 -->
      <defs>
       <path d="
M37.7969 64.3125
L12.8906 25.3906
L37.7969 25.3906
z

M35.2031 72.9062
L47.6094 72.9062
L47.6094 25.3906
L58.0156 25.3906
L58.0156 17.1875
L47.6094 17.1875
L47.6094 0
L37.7969 0
L37.7969 17.1875
L4.89062 17.1875
L4.89062 26.7031
z
" id="BitstreamVeraSans-Roman-34"/>
      </defs>
      <g transform="translate(464.890942944 492.207672038)scale(0.12 -0.12)">
       <use xlink:href="#BitstreamVeraSans-Roman-34"/>
       <use x="63.623046875" xlink:href="#BitstreamVeraSans-Roman-30"/>
       <use x="127.24609375" xlink:href="#BitstreamVeraSans-Roman-30"/>
      </g>
     </g>
    </g>
    <g id="xtick_4">
     <g id="line2d_8">
      <g>
       <use style="stroke:#000000;stroke-width:0.5;" x="682.369337979" xlink:href="#mc7db9fdffb" y="479.089547038"/>
      </g>
     </g>
     <g id="line2d_9">
      <g>
       <use style="stroke:#000000;stroke-width:0.5;" x="682.369337979" xlink:href="#m5a7d422ac3" y="70.41271777"/>
      </g>
     </g>
     <g id="text_4">
      <!-- 600 -->
      <defs>
       <path d="
M33.0156 40.375
Q26.375 40.375 22.4844 35.8281
Q18.6094 31.2969 18.6094 23.3906
Q18.6094 15.5312 22.4844 10.9531
Q26.375 6.39062 33.0156 6.39062
Q39.6562 6.39062 43.5312 10.9531
Q47.4062 15.5312 47.4062 23.3906
Q47.4062 31.2969 43.5312 35.8281
Q39.6562 40.375 33.0156 40.375
M52.5938 71.2969
L52.5938 62.3125
Q48.875 64.0625 45.0938 64.9844
Q41.3125 65.9219 37.5938 65.9219
Q27.8281 65.9219 22.6719 59.3281
Q17.5312 52.7344 16.7969 39.4062
Q19.6719 43.6562 24.0156 45.9219
Q28.375 48.1875 33.5938 48.1875
Q44.5781 48.1875 50.9531 41.5156
Q57.3281 34.8594 57.3281 23.3906
Q57.3281 12.1562 50.6875 5.35938
Q44.0469 -1.42188 33.0156 -1.42188
Q20.3594 -1.42188 13.6719 8.26562
Q6.98438 17.9688 6.98438 36.375
Q6.98438 53.6562 15.1875 63.9375
Q23.3906 74.2188 37.2031 74.2188
Q40.9219 74.2188 44.7031 73.4844
Q48.4844 72.75 52.5938 71.2969" id="BitstreamVeraSans-Roman-36"/>
      </defs>
      <g transform="translate(671.734337979 492.207672038)scale(0.12 -0.12)">
       <use xlink:href="#BitstreamVeraSans-Roman-36"/>
       <use x="63.623046875" xlink:href="#BitstreamVeraSans-Roman-30"/>
       <use x="127.24609375" xlink:href="#BitstreamVeraSans-Roman-30"/>
      </g>
     </g>
    </g>
    <g id="xtick_5">
     <g id="line2d_10">
      <g>
       <use style="stroke:#000000;stroke-width:0.5;" x="889.087108014" xlink:href="#mc7db9fdffb" y="479.089547038"/>
      </g>
     </g>
     <g id="line2d_11">
      <g>
       <use style="stroke:#000000;stroke-width:0.5;" x="889.087108014" xlink:href="#m5a7d422ac3" y="70.41271777"/>
      </g>
     </g>
     <g id="text_5">
      <!-- 800 -->
      <defs>
       <path d="
M31.7812 34.625
Q24.75 34.625 20.7188 30.8594
Q16.7031 27.0938 16.7031 20.5156
Q16.7031 13.9219 20.7188 10.1562
Q24.75 6.39062 31.7812 6.39062
Q38.8125 6.39062 42.8594 10.1719
Q46.9219 13.9688 46.9219 20.5156
Q46.9219 27.0938 42.8906 30.8594
Q38.875 34.625 31.7812 34.625
M21.9219 38.8125
Q15.5781 40.375 12.0312 44.7188
Q8.5 49.0781 8.5 55.3281
Q8.5 64.0625 14.7188 69.1406
Q20.9531 74.2188 31.7812 74.2188
Q42.6719 74.2188 48.875 69.1406
Q55.0781 64.0625 55.0781 55.3281
Q55.0781 49.0781 51.5312 44.7188
Q48 40.375 41.7031 38.8125
Q48.8281 37.1562 52.7969 32.3125
Q56.7812 27.4844 56.7812 20.5156
Q56.7812 9.90625 50.3125 4.23438
Q43.8438 -1.42188 31.7812 -1.42188
Q19.7344 -1.42188 13.25 4.23438
Q6.78125 9.90625 6.78125 20.5156
Q6.78125 27.4844 10.7812 32.3125
Q14.7969 37.1562 21.9219 38.8125
M18.3125 54.3906
Q18.3125 48.7344 21.8438 45.5625
Q25.3906 42.3906 31.7812 42.3906
Q38.1406 42.3906 41.7188 45.5625
Q45.3125 48.7344 45.3125 54.3906
Q45.3125 60.0625 41.7188 63.2344
Q38.1406 66.4062 31.7812 66.4062
Q25.3906 66.4062 21.8438 63.2344
Q18.3125 60.0625 18.3125 54.3906" id="BitstreamVeraSans-Roman-38"/>
      </defs>
      <g transform="translate(878.439920514 492.207672038)scale(0.12 -0.12)">
       <use xlink:href="#BitstreamVeraSans-Roman-38"/>
       <use x="63.623046875" xlink:href="#BitstreamVeraSans-Roman-30"/>
       <use x="127.24609375" xlink:href="#BitstreamVeraSans-Roman-30"/>
      </g>
     </g>
    </g>
    <g id="xtick_6">
     <g id="line2d_12">
      <g>
       <use style="stroke:#000000;stroke-width:0.5;" x="1095.80487805" xlink:href="#mc7db9fdffb" y="479.089547038"/>
      </g>
     </g>
     <g id="line2d_13">
      <g>
       <use style="stroke:#000000;stroke-width:0.5;" x="1095.80487805" xlink:href="#m5a7d422ac3" y="70.41271777"/>
      </g>
     </g>
     <g id="text_6">
      <!-- 1000 -->
      <defs>
       <path d="
M12.4062 8.29688
L28.5156 8.29688
L28.5156 63.9219
L10.9844 60.4062
L10.9844 69.3906
L28.4219 72.9062
L38.2812 72.9062
L38.2812 8.29688
L54.3906 8.29688
L54.3906 0
L12.4062 0
z
" id="BitstreamVeraSans-Roman-31"/>
      </defs>
      <g transform="translate(1081.59237805 492.207672038)scale(0.12 -0.12)">
       <use xlink:href="#BitstreamVeraSans-Roman-31"/>
       <use x="63.623046875" xlink:href="#BitstreamVeraSans-Roman-30"/>
       <use x="127.24609375" xlink:href="#BitstreamVeraSans-Roman-30"/>
       <use x="190.869140625" xlink:href="#BitstreamVeraSans-Roman-30"/>
      </g>
     </g>
    </g>
   </g>
   <g id="matplotlib.axis_2">
    <g id="ytick_1">
     <g id="line2d_14">
      <defs>
       <path d="
M0 0
L4 0" id="md7965d1ba0" style="stroke:#000000;stroke-width:0.5;"/>
      </defs>
      <g>
       <use style="stroke:#000000;stroke-width:0.5;" x="62.2160278746" xlink:href="#md7965d1ba0" y="479.089547038"/>
      </g>
     </g>
     <g id="line2d_15">
      <defs>
       <path d="
M0 0
L-4 0" id="md9a1c1a7cd" style="stroke:#000000;stroke-width:0.5;"/>
      </defs>
      <g>
       <use style="stroke:#000000;stroke-width:0.5;" x="1095.80487805" xlink:href="#md9a1c1a7cd" y="479.089547038"/>
      </g>
     </g>
     <g id="text_7">
      <!-- 0 -->
      <g transform="translate(52.1691528746 482.400797038)scale(0.12 -0.12)">
       <use xlink:href="#BitstreamVeraSans-Roman-30"/>
      </g>
     </g>
    </g>
    <g id="ytick_2">
     <g id="line2d_16">
      <g>
       <use style="stroke:#000000;stroke-width:0.5;" x="62.2160278746" xlink:href="#md7965d1ba0" y="410.97674216"/>
      </g>
     </g>
     <g id="line2d_17">
      <g>
       <use style="stroke:#000000;stroke-width:0.5;" x="1095.80487805" xlink:href="#md9a1c1a7cd" y="410.97674216"/>
      </g>
     </g>
     <g id="text_8">
      <!-- 500 -->
      <defs>
       <path d="
M10.7969 72.9062
L49.5156 72.9062
L49.5156 64.5938
L19.8281 64.5938
L19.8281 46.7344
Q21.9688 47.4688 24.1094 47.8281
Q26.2656 48.1875 28.4219 48.1875
Q40.625 48.1875 47.75 41.5
Q54.8906 34.8125 54.8906 23.3906
Q54.8906 11.625 47.5625 5.09375
Q40.2344 -1.42188 26.9062 -1.42188
Q22.3125 -1.42188 17.5469 -0.640625
Q12.7969 0.140625 7.71875 1.70312
L7.71875 11.625
Q12.1094 9.23438 16.7969 8.0625
Q21.4844 6.89062 26.7031 6.89062
Q35.1562 6.89062 40.0781 11.3281
Q45.0156 15.7656 45.0156 23.3906
Q45.0156 31 40.0781 35.4375
Q35.1562 39.8906 26.7031 39.8906
Q22.75 39.8906 18.8125 39.0156
Q14.8906 38.1406 10.7969 36.2812
z
" id="BitstreamVeraSans-Roman-35"/>
      </defs>
      <g transform="translate(37.0341528746 414.28799216)scale(0.12 -0.12)">
       <use xlink:href="#BitstreamVeraSans-Roman-35"/>
       <use x="63.623046875" xlink:href="#BitstreamVeraSans-Roman-30"/>
       <use x="127.24609375" xlink:href="#BitstreamVeraSans-Roman-30"/>
      </g>
     </g>
    </g>
    <g id="ytick_3">
     <g id="line2d_18">
      <g>
       <use style="stroke:#000000;stroke-width:0.5;" x="62.2160278746" xlink:href="#md7965d1ba0" y="342.863937282"/>
      </g>
     </g>
     <g id="line2d_19">
      <g>
       <use style="stroke:#000000;stroke-width:0.5;" x="1095.80487805" xlink:href="#md9a1c1a7cd" y="342.863937282"/>
      </g>
     </g>
     <g id="text_9">
      <!-- 1000 -->
      <g transform="translate(29.7910278746 346.175187282)scale(0.12 -0.12)">
       <use xlink:href="#BitstreamVeraSans-Roman-31"/>
       <use x="63.623046875" xlink:href="#BitstreamVeraSans-Roman-30"/>
       <use x="127.24609375" xlink:href="#BitstreamVeraSans-Roman-30"/>
       <use x="190.869140625" xlink:href="#BitstreamVeraSans-Roman-30"/>
      </g>
     </g>
    </g>
    <g id="ytick_4">
     <g id="line2d_20">
      <g>
       <use style="stroke:#000000;stroke-width:0.5;" x="62.2160278746" xlink:href="#md7965d1ba0" y="274.751132404"/>
      </g>
     </g>
     <g id="line2d_21">
      <g>
       <use style="stroke:#000000;stroke-width:0.5;" x="1095.80487805" xlink:href="#md9a1c1a7cd" y="274.751132404"/>
      </g>
     </g>
     <g id="text_10">
      <!-- 1500 -->
      <g transform="translate(29.7910278746 278.062382404)scale(0.12 -0.12)">
       <use xlink:href="#BitstreamVeraSans-Roman-31"/>
       <use x="63.623046875" xlink:href="#BitstreamVeraSans-Roman-35"/>
       <use x="127.24609375" xlink:href="#BitstreamVeraSans-Roman-30"/>
       <use x="190.869140625" xlink:href="#BitstreamVeraSans-Roman-30"/>
      </g>
     </g>
    </g>
    <g id="ytick_5">
     <g id="line2d_22">
      <g>
       <use style="stroke:#000000;stroke-width:0.5;" x="62.2160278746" xlink:href="#md7965d1ba0" y="206.638327526"/>
      </g>
     </g>
     <g id="line2d_23">
      <g>
       <use style="stroke:#000000;stroke-width:0.5;" x="1095.80487805" xlink:href="#md9a1c1a7cd" y="206.638327526"/>
      </g>
     </g>
     <g id="text_11">
      <!-- 2000 -->
      <g transform="translate(29.3522778746 209.949577526)scale(0.12 -0.12)">
       <use xlink:href="#BitstreamVeraSans-Roman-32"/>
       <use x="63.623046875" xlink:href="#BitstreamVeraSans-Roman-30"/>
       <use x="127.24609375" xlink:href="#BitstreamVeraSans-Roman-30"/>
       <use x="190.869140625" xlink:href="#BitstreamVeraSans-Roman-30"/>
      </g>
     </g>
    </g>
    <g id="ytick_6">
     <g id="line2d_24">
      <g>
       <use style="stroke:#000000;stroke-width:0.5;" x="62.2160278746" xlink:href="#md7965d1ba0" y="138.525522648"/>
      </g>
     </g>
     <g id="line2d_25">
      <g>
       <use style="stroke:#000000;stroke-width:0.5;" x="1095.80487805" xlink:href="#md9a1c1a7cd" y="138.525522648"/>
      </g>
     </g>
     <g id="text_12">
      <!-- 2500 -->
      <g transform="translate(29.3522778746 141.836772648)scale(0.12 -0.12)">
       <use xlink:href="#BitstreamVeraSans-Roman-32"/>
       <use x="63.623046875" xlink:href="#BitstreamVeraSans-Roman-35"/>
       <use x="127.24609375" xlink:href="#BitstreamVeraSans-Roman-30"/>
       <use x="190.869140625" xlink:href="#BitstreamVeraSans-Roman-30"/>
      </g>
     </g>
    </g>
    <g id="ytick_7">
     <g id="line2d_26">
      <g>
       <use style="stroke:#000000;stroke-width:0.5;" x="62.2160278746" xlink:href="#md7965d1ba0" y="70.41271777"/>
      </g>
     </g>
     <g id="line2d_27">
      <g>
       <use style="stroke:#000000;stroke-width:0.5;" x="1095.80487805" xlink:href="#md9a1c1a7cd" y="70.41271777"/>
      </g>
     </g>
     <g id="text_13">
      <!-- 3000 -->
      <defs>
       <path d="
M40.5781 39.3125
Q47.6562 37.7969 51.625 33
Q55.6094 28.2188 55.6094 21.1875
Q55.6094 10.4062 48.1875 4.48438
Q40.7656 -1.42188 27.0938 -1.42188
Q22.5156 -1.42188 17.6562 -0.515625
Q12.7969 0.390625 7.625 2.20312
L7.625 11.7188
Q11.7188 9.32812 16.5938 8.10938
Q21.4844 6.89062 26.8125 6.89062
Q36.0781 6.89062 40.9375 10.5469
Q45.7969 14.2031 45.7969 21.1875
Q45.7969 27.6406 41.2812 31.2656
Q36.7656 34.9062 28.7188 34.9062
L20.2188 34.9062
L20.2188 43.0156
L29.1094 43.0156
Q36.375 43.0156 40.2344 45.9219
Q44.0938 48.8281 44.0938 54.2969
Q44.0938 59.9062 40.1094 62.9062
Q36.1406 65.9219 28.7188 65.9219
Q24.6562 65.9219 20.0156 65.0312
Q15.375 64.1562 9.8125 62.3125
L9.8125 71.0938
Q15.4375 72.6562 20.3438 73.4375
Q25.25 74.2188 29.5938 74.2188
Q40.8281 74.2188 47.3594 69.1094
Q53.9062 64.0156 53.9062 55.3281
Q53.9062 49.2656 50.4375 45.0938
Q46.9688 40.9219 40.5781 39.3125" id="BitstreamVeraSans-Roman-33"/>
      </defs>
      <g transform="translate(29.3879028746 73.72396777)scale(0.12 -0.12)">
       <use xlink:href="#BitstreamVeraSans-Roman-33"/>
       <use x="63.623046875" xlink:href="#BitstreamVeraSans-Roman-30"/>
       <use x="127.24609375" xlink:href="#BitstreamVeraSans-Roman-30"/>
       <use x="190.869140625" xlink:href="#BitstreamVeraSans-Roman-30"/>
      </g>
     </g>
    </g>
   </g>
  </g>
 </g>
 <defs>
  <clipPath id="p245bc5be59">
   <rect height="408.676829268" width="1033.58885017" x="62.2160278746" y="70.41271777"/>
  </clipPath>
 </defs>
</svg>
